<svg xmlns="http://www.w3.org/2000/svg" version="1.1" xmlns:xlink="http://www.w3.org/1999/xlink" xmlns:svgjs="http://svgjs.com/svgjs" width="1440" height="560" preserveAspectRatio="none" viewBox="0 0 1440 560"><g mask="url(&quot;#SvgjsMask1051&quot;)" fill="none"><rect width="1440" height="560" x="0" y="0" fill="rgba(243, 232, 235, 1)"></rect><path d="M0,456.228C126.971,461.944,237.937,597.021,359.189,558.91C479.503,521.094,540.827,385.622,591.736,270.237C642.191,155.879,668.52,30.097,646.815,-92.998C625.481,-213.992,573.286,-339.465,471.974,-408.968C375.777,-474.962,245.16,-421.914,131.174,-446.739C28.664,-469.064,-56.009,-555.768,-160.531,-546.718C-273.23,-536.96,-382.71,-481.301,-456.812,-395.83C-530.922,-310.349,-570.242,-194.091,-564.197,-81.119C-558.591,23.656,-461.654,95.797,-425.241,194.201C-384.594,304.047,-438.706,466.038,-338.991,527.481C-238.656,589.306,-117.734,450.928,0,456.228" fill="#debfc8"></path><path d="M1440 971.881C1534.073 984.2139999999999 1636.002 1040.292 1718.089 992.7149999999999 1799.9560000000001 945.265 1820.469 834.5989999999999 1837.459 741.513 1851.891 662.442 1808.673 587.631 1806.692 507.278 1804.333 411.616 1874.972 308.062 1824.763 226.601 1775.357 146.44299999999998 1662.652 129.02499999999998 1568.807 121.32299999999998 1484.974 114.44299999999998 1411.99 166.42399999999998 1330.187 186.01 1242.632 206.974 1132.232 174.24599999999998 1071.23 240.459 1010.404 306.48199999999997 1047.783 412.995 1038.778 502.313 1030.233 587.069 988.491 672.684 1019.658 751.9639999999999 1051.272 832.381 1128.566 885.4100000000001 1205.129 925.466 1277.302 963.226 1359.237 961.293 1440 971.881" fill="#ffffff"></path></g><defs><mask id="SvgjsMask1051"><rect width="1440" height="560" fill="#ffffff"></rect></mask></defs></svg>